<svg width="30" height="32" viewBox="0 0 30 32" fill="none" xmlns="http://www.w3.org/2000/svg">
<rect y="2" width="30" height="30" rx="15" fill="#FFA600"/>
<path d="M9.13477 24H6.86914C6.81706 24 6.79102 23.9674 6.79102 23.9023L6.83008 10.1621C6.83008 10.11 6.85612 10.084 6.9082 10.084H10.9512C11.6738 10.084 12.3379 10.2598 12.9434 10.6113C13.5488 10.9629 14.0306 11.4349 14.3887 12.0273C14.7533 12.6198 14.9355 13.2904 14.9355 14.0391C14.9355 14.5273 14.8607 14.9701 14.7109 15.3672C14.5612 15.7643 14.3854 16.0996 14.1836 16.373C13.9883 16.6465 13.8092 16.8483 13.6465 16.9785C14.3691 17.7793 14.7305 18.7201 14.7305 19.8008L14.75 23.9023C14.75 23.9674 14.7174 24 14.6523 24H12.3867C12.3346 24 12.3086 23.9805 12.3086 23.9414V19.8008C12.3086 19.319 12.1393 18.9023 11.8008 18.5508C11.4622 18.1992 11.0456 18.0234 10.5508 18.0234H9.23242L9.21289 23.9023C9.21289 23.9674 9.18685 24 9.13477 24ZM10.9512 12.4766H9.23242V15.6211H10.9512C11.3613 15.6211 11.7259 15.4681 12.0449 15.1621C12.3704 14.8561 12.5332 14.4818 12.5332 14.0391C12.5332 13.6159 12.377 13.2513 12.0645 12.9453C11.752 12.6328 11.3809 12.4766 10.9512 12.4766ZM22.9824 24H16.5176C16.4655 24 16.4395 23.9674 16.4395 23.9023L16.459 10.1621C16.459 10.11 16.485 10.084 16.5371 10.084H22.9629C23.015 10.084 23.041 10.1165 23.041 10.1816V12.418C23.041 12.4701 23.015 12.4961 22.9629 12.4961H18.8613V15.6211H22.9629C23.015 15.6211 23.041 15.6471 23.041 15.6992L23.0605 17.9648C23.0605 18.0169 23.0345 18.043 22.9824 18.043H18.8613V21.5391H22.9824C23.0345 21.5391 23.0605 21.5716 23.0605 21.6367V23.9219C23.0605 23.974 23.0345 24 22.9824 24Z" fill="#F4F4F4"/>
</svg>
