<svg width="108" height="19" viewBox="0 0 108 19" fill="none" xmlns="http://www.w3.org/2000/svg">
<path d="M3.91846 18H1.08643C1.02132 18 0.98877 17.9593 0.98877 17.8779L1.0376 0.702637C1.0376 0.637533 1.07015 0.60498 1.13525 0.60498H6.18896C7.09229 0.60498 7.92236 0.824707 8.6792 1.26416C9.43604 1.70361 10.0382 2.29362 10.4858 3.03418C10.9416 3.77474 11.1694 4.61296 11.1694 5.54883C11.1694 6.15918 11.0758 6.71257 10.8887 7.20898C10.7015 7.7054 10.4818 8.12451 10.2295 8.46631C9.98535 8.80811 9.76156 9.06038 9.55811 9.22314C10.4614 10.2241 10.9131 11.4001 10.9131 12.751L10.9375 17.8779C10.9375 17.9593 10.8968 18 10.8154 18H7.9834C7.91829 18 7.88574 17.9756 7.88574 17.9268V12.751C7.88574 12.1488 7.67415 11.6279 7.25098 11.1885C6.8278 10.749 6.30697 10.5293 5.68848 10.5293H4.04053L4.01611 17.8779C4.01611 17.9593 3.98356 18 3.91846 18ZM6.18896 3.5957H4.04053V7.52637H6.18896C6.70166 7.52637 7.15739 7.33512 7.55615 6.95264C7.96305 6.57015 8.1665 6.10221 8.1665 5.54883C8.1665 5.01986 7.97119 4.56413 7.58057 4.18164C7.18994 3.79102 6.72607 3.5957 6.18896 3.5957ZM21.228 18H13.147C13.0819 18 13.0493 17.9593 13.0493 17.8779L13.0737 0.702637C13.0737 0.637533 13.1063 0.60498 13.1714 0.60498H21.2036C21.2687 0.60498 21.3013 0.645671 21.3013 0.727051V3.52246C21.3013 3.58757 21.2687 3.62012 21.2036 3.62012H16.0767V7.52637H21.2036C21.2687 7.52637 21.3013 7.55892 21.3013 7.62402L21.3257 10.4561C21.3257 10.5212 21.2931 10.5537 21.228 10.5537H16.0767V14.9238H21.228C21.2931 14.9238 21.3257 14.9645 21.3257 15.0459V17.9023C21.3257 17.9674 21.2931 18 21.228 18ZM27.7954 18.2441C26.9084 18.2441 26.0905 18.0163 25.3418 17.5605C24.6012 17.1048 24.0072 16.4985 23.5596 15.7417C23.1201 14.9767 22.9004 14.1385 22.9004 13.2271V12.0796C22.9004 11.9901 22.9411 11.9453 23.0225 11.9453H25.8301C25.8952 11.9453 25.9277 11.9901 25.9277 12.0796V13.2271C25.9277 13.7723 26.1108 14.2443 26.4771 14.6431C26.8433 15.0337 27.2827 15.229 27.7954 15.229C28.3162 15.229 28.7598 15.0296 29.126 14.6309C29.4922 14.224 29.6753 13.756 29.6753 13.2271C29.6753 12.6167 29.2765 12.0837 28.479 11.6279C28.3488 11.5465 28.1779 11.4489 27.9663 11.335C27.7629 11.2129 27.5187 11.0745 27.2339 10.9199C26.9491 10.7653 26.6724 10.6147 26.4038 10.4683C26.1353 10.3136 25.8748 10.1672 25.6226 10.0288C24.7111 9.4917 24.0316 8.82031 23.584 8.01465C23.1445 7.20085 22.9248 6.28939 22.9248 5.28027C22.9248 4.35254 23.1527 3.51432 23.6084 2.76562C24.0641 2.02507 24.6582 1.43913 25.3906 1.00781C26.1312 0.568359 26.9328 0.348633 27.7954 0.348633C28.6825 0.348633 29.4963 0.568359 30.2368 1.00781C30.9774 1.4554 31.5674 2.04948 32.0068 2.79004C32.4544 3.5306 32.6782 4.36068 32.6782 5.28027V7.33105C32.6782 7.39616 32.6457 7.42871 32.5806 7.42871H29.7729C29.7078 7.42871 29.6753 7.39616 29.6753 7.33105L29.6509 5.28027C29.6509 4.69434 29.4678 4.21826 29.1016 3.85205C28.7354 3.48584 28.3 3.30273 27.7954 3.30273C27.2827 3.30273 26.8433 3.49805 26.4771 3.88867C26.1108 4.2793 25.9277 4.74316 25.9277 5.28027C25.9277 5.82552 26.0417 6.28125 26.2695 6.64746C26.5055 7.01367 26.9328 7.36361 27.5513 7.69727C27.6164 7.72982 27.7669 7.8112 28.0029 7.94141C28.2389 8.07161 28.4993 8.2181 28.7842 8.38086C29.0771 8.53548 29.3416 8.6779 29.5776 8.80811C29.8136 8.93018 29.9561 9.00342 30.0049 9.02783C30.835 9.4917 31.4901 10.0614 31.9702 10.7368C32.4585 11.4123 32.7026 12.2424 32.7026 13.2271C32.7026 14.1792 32.4829 15.0337 32.0435 15.7905C31.5959 16.5474 31.0018 17.1455 30.2612 17.585C29.5207 18.0244 28.6987 18.2441 27.7954 18.2441ZM39.0381 18.2441C38.1592 18.2441 37.3454 18.0163 36.5967 17.5605C35.848 17.1048 35.2498 16.4945 34.8022 15.7295C34.3628 14.9564 34.1431 14.1141 34.1431 13.2026L34.1919 0.702637C34.1919 0.637533 34.2244 0.60498 34.2896 0.60498H37.0972C37.1623 0.60498 37.1948 0.637533 37.1948 0.702637V13.2026C37.1948 13.7642 37.3739 14.2443 37.7319 14.6431C38.09 15.0337 38.5254 15.229 39.0381 15.229C39.5752 15.229 40.0228 15.0337 40.3809 14.6431C40.7389 14.2443 40.918 13.7642 40.918 13.2026V0.702637C40.918 0.637533 40.9505 0.60498 41.0156 0.60498H43.8232C43.8883 0.60498 43.9209 0.637533 43.9209 0.702637L43.9697 13.2026C43.9697 14.1222 43.75 14.9686 43.3105 15.7417C42.863 16.5067 42.2689 17.117 41.5283 17.5728C40.7878 18.0203 39.9577 18.2441 39.0381 18.2441ZM48.8647 18H46.0327C45.9676 18 45.9351 17.9593 45.9351 17.8779L45.9839 0.702637C45.9839 0.637533 46.0164 0.60498 46.0815 0.60498H49.1333C49.1984 0.60498 49.2554 0.637533 49.3042 0.702637L51.5869 3.99854L53.8574 0.702637C53.9062 0.637533 53.9673 0.60498 54.0405 0.60498H57.1045C57.1777 0.60498 57.2144 0.637533 57.2144 0.702637L57.2632 17.8779C57.2632 17.9593 57.2306 18 57.1655 18H54.3335C54.2684 18 54.2358 17.9593 54.2358 17.8779L54.2114 5.12158L51.5869 8.93018L48.9868 5.12158L48.9624 17.8779C48.9624 17.9593 48.9299 18 48.8647 18ZM67.5415 18H59.4604C59.3953 18 59.3628 17.9593 59.3628 17.8779L59.3872 0.702637C59.3872 0.637533 59.4198 0.60498 59.4849 0.60498H67.5171C67.5822 0.60498 67.6147 0.645671 67.6147 0.727051V3.52246C67.6147 3.58757 67.5822 3.62012 67.5171 3.62012H62.3901V7.52637H67.5171C67.5822 7.52637 67.6147 7.55892 67.6147 7.62402L67.6392 10.4561C67.6392 10.5212 67.6066 10.5537 67.5415 10.5537H62.3901V14.9238H67.5415C67.6066 14.9238 67.6392 14.9645 67.6392 15.0459V17.9023C67.6392 17.9674 67.6066 18 67.5415 18ZM78.0396 18H69.9585C69.8934 18 69.8608 17.9593 69.8608 17.8779L69.8853 0.727051C69.8853 0.645671 69.9259 0.60498 70.0073 0.60498H72.7905C72.8719 0.60498 72.9126 0.645671 72.9126 0.727051L72.8882 14.9238H78.0396C78.1209 14.9238 78.1616 14.9645 78.1616 15.0459V17.8779C78.1616 17.9593 78.1209 18 78.0396 18ZM82.7515 18H79.9194C79.8381 18 79.7974 17.9593 79.7974 17.8779L79.8218 0.702637C79.8218 0.637533 79.8543 0.60498 79.9194 0.60498H82.7271C82.7922 0.60498 82.8247 0.637533 82.8247 0.702637L82.8491 17.8779C82.8491 17.9593 82.8166 18 82.7515 18ZM87.7686 18H85.2661C85.1359 18 85.0708 17.943 85.0708 17.8291L85.0464 0.800293C85.0464 0.670085 85.1115 0.60498 85.2417 0.60498H87.5L91.7236 10.4561L91.6016 0.800293C91.6016 0.670085 91.6748 0.60498 91.8213 0.60498H94.2993C94.397 0.60498 94.4458 0.670085 94.4458 0.800293L94.4702 17.8535C94.4702 17.9512 94.4295 18 94.3481 18H92.1509L87.8174 8.7959L88.0005 17.8047C88.0005 17.9349 87.9232 18 87.7686 18ZM99.5728 18H96.7407C96.6756 18 96.6431 17.9593 96.6431 17.8779L96.6919 0.727051C96.6919 0.645671 96.7244 0.60498 96.7896 0.60498H99.5972C99.6623 0.60498 99.6948 0.645671 99.6948 0.727051V6.64746L103.613 0.702637C103.678 0.637533 103.739 0.60498 103.796 0.60498H106.665C106.738 0.60498 106.755 0.637533 106.714 0.702637L102.393 7.59961L107.239 17.9023C107.279 17.9674 107.239 18 107.117 18H104.065C103.984 18 103.935 17.9674 103.918 17.9023L100.537 10.5537L99.6704 11.9209V17.8779C99.6704 17.9593 99.6379 18 99.5728 18Z" fill="#FFD000"/>
</svg>
